<?xml version="1.0" standalone="no"?><!DOCTYPE svg PUBLIC "-//W3C//DTD SVG 1.1//EN" "http://www.w3.org/Graphics/SVG/1.1/DTD/svg11.dtd"><svg t="1699339181812" class="icon" viewBox="0 0 1024 1024" version="1.1" xmlns="http://www.w3.org/2000/svg" p-id="4006" xmlns:xlink="http://www.w3.org/1999/xlink" width="200" height="200"><path d="M725.333333 981.333333H298.666667c-145.066667 0-256-110.933333-256-256V298.666667c0-145.066667 110.933333-256 256-256h426.666666c145.066667 0 256 110.933333 256 256v426.666666c0 145.066667-110.933333 256-256 256zM298.666667 128C204.8 128 128 204.8 128 298.666667v426.666666c0 93.866667 76.8 170.666667 170.666667 170.666667h426.666666c93.866667 0 170.666667-76.8 170.666667-170.666667V298.666667c0-93.866667-76.8-170.666667-170.666667-170.666667H298.666667z" p-id="4007" fill="#ffffff"></path><path d="M512 721.066667c-46.933333 0-89.6-12.8-128-42.666667-46.933333-34.133333-72.533333-85.333333-81.066667-140.8-8.533333-55.466667 8.533333-110.933333 42.666667-157.866667 34.133333-42.666667 81.066667-72.533333 136.533333-81.066666 21.333333-4.266667 46.933333-4.266667 68.266667 0 89.6 17.066667 157.866667 85.333333 170.666667 179.2 17.066667 115.2-64 226.133333-183.466667 238.933333-4.266667 4.266667-12.8 4.266667-25.6 4.266667z m4.266667-341.333334h-12.8-4.266667c-34.133333 4.266667-64 21.333333-85.333333 51.2-21.333333 25.6-29.866667 59.733333-25.6 93.866667 4.266667 34.133333 21.333333 64 46.933333 85.333333 25.6 21.333333 59.733333 29.866667 93.866667 25.6 68.266667-8.533333 119.466667-72.533333 106.666666-145.066666-8.533333-59.733333-51.2-98.133333-106.666666-110.933334h-12.8zM746.666667 320c-12.8 0-21.333333-4.266667-29.866667-12.8-8.533333-8.533333-12.8-21.333333-12.8-29.866667 0-4.266667 0-12.8 4.266667-17.066666 0-4.266667 4.266667-8.533333 8.533333-12.8 17.066667-17.066667 42.666667-17.066667 59.733333 0 4.266667 4.266667 8.533333 8.533333 8.533334 12.8 0 4.266667 4.266667 8.533333 4.266666 17.066666 0 12.8-4.266667 21.333333-12.8 29.866667-8.533333 8.533333-17.066667 12.8-29.866666 12.8z" p-id="4008" fill="#ffffff"></path></svg>