<?xml version="1.0" standalone="no"?><!DOCTYPE svg PUBLIC "-//W3C//DTD SVG 1.1//EN" "http://www.w3.org/Graphics/SVG/1.1/DTD/svg11.dtd"><svg t="1699339762223" class="icon" viewBox="0 0 1024 1024" version="1.1" xmlns="http://www.w3.org/2000/svg" p-id="5336" id="mx_n_1699339762224" xmlns:xlink="http://www.w3.org/1999/xlink" width="200" height="200"><path d="M500.020928 386.580918c26.305802 0 46.290988-9.691611 60.557522-29.13503 10.895538-14.266533 15.952031-37.141144 15.952031-67.419905l0-99.92593c0-30.278761-5.056493-52.551408-15.952031-66.817941-14.32673-19.323026-34.311916-29.074834-60.557522-29.074834-25.764035 0-45.749221 9.691611-59.895362 29.074834-10.895538 14.32673-16.012227 36.599377-16.012227 66.878138l0 99.92593c0 30.278761 5.116689 52.551408 16.012227 67.419905 14.146141 19.383223 34.131327 29.074834 59.895362 29.074834zM475.460819 179.866675c0-26.245606 8.006114-39.368409 24.560108-39.368409 17.155958 0 24.560108 13.122803 24.560108 39.368409l0 119.911116c0 26.305802-7.40415 39.970372-24.560108 39.970372-16.553994 0-24.560108-13.724766-24.560108-39.970372l0-119.911116zM623.363236 365.452002c-2.889424-8.608077-4.514726-22.272647-4.514726-42.7996l0-225.013932 51.949444 0 0 209.543472c0 12.039269 0 18.841456 0.601963 20.045382 1.143731 8.006114 5.116689 12.520839 11.979072 12.520839 10.233378 0 21.06872-8.006114 32.506026-24.560108l0-217.549586 51.949444 0 0 284.96949-51.949444 0 0-31.422491c-20.526953 23.958145-39.910176 35.39545-58.872024 35.39545-16.553994 0-28.533067-6.802187-33.649756-21.128917zM820.987831 710.979014l0 26.245606-51.407677 0 0-26.245606c0-25.703839 8.608077-38.886838 25.703839-38.886838 17.095762 0.060196 25.703839 13.182999 25.703839 38.886838zM262.42596 106.788313c-12.520839-35.39545-25.041679-71.392863-37.141144-106.788313l60.617718 0 40.512139 150.189877 38.826642-150.189877 58.270061 0-69.105402 227.84316 0 154.764799-57.066134 0 0-154.764799c-5.176886-27.9913-16.614191-67.961672-34.913879-121.054847zM920.311798 528.824878c-10.293575-45.147258-47.434719-78.255247-91.378049-83.371936-105.102816-11.437305-211.349362-11.437305-316.993945-11.437305s-211.891129 0-316.391982 11.437305c-44.424902 5.116689-81.024278 38.224678-91.85962 83.371936-14.266533 63.928517-14.868497 133.635883-14.868497 199.851861 0 65.674211 0 135.863147 14.868497 199.851861 10.293575 45.147258 47.434719 78.255247 91.378049 82.830169 105.042619 11.979072 211.289166 11.979072 316.933749 11.979072s211.891129 0 316.993945-11.979072c43.883134-4.574922 80.482511-37.682911 91.378049-82.830169 14.266533-63.928517 14.868497-134.17765 14.868497-199.851861-0.060196-66.215978-0.060196-135.923344-14.928693-199.851861zM330.387632 586.492975l-61.039092 0 0 324.939862-57.12633 0 0-324.939862-60.015755 0 0-53.695138 178.181177 0 0 53.695138zM484.610664 911.432838l-50.86591 0 0-30.820528c-20.587149 23.416378-39.970372 34.853683-58.270061 34.853683-16.493798 0-28.533067-6.862383-33.107989-21.128917-2.889424-8.547881-4.574922-21.73088-4.574922-41.65587l0-223.268238 50.86591 0 0 207.857974c0 12.039269 0 18.299688 0.541767 20.045382 1.203927 7.945917 5.176886 11.979072 11.979072 11.979072 10.353771 0 21.189113-7.945917 32.566222-23.958145l0-215.864088 50.86591 0 0 281.959673zM678.804068 826.917171c0 26.305802-1.203927 45.087061-5.176886 57.066134-6.26042 20.587149-20.587149 31.422491-40.572336 31.422491-18.239492 0-35.997413-10.293575-53.153371-31.422491l0 27.449533-50.745518 0 0-378.635001 50.745518 0 0 123.944271c16.553994-20.587149 34.311916-30.820528 53.153371-30.820528 19.985186 0 34.311916 10.835342 40.572336 31.964258 3.972959 11.437305 5.176886 30.218564 5.176886 56.524367l0 112.506966zM871.793545 780.084416l-102.213391 0 0 49.661983c0 26.305802 8.608077 39.368409 26.305802 39.368409 12.581036 0 19.985186-6.802187 22.874611-20.526953 0.541767-2.829228 1.143731-14.266533 1.143731-34.853683l51.949444 0 0 7.464347c0 16.553994 0 27.9913-1.143731 33.107989-1.203927 11.377109-5.778849 21.670684-11.979072 30.820528-13.784963 19.985186-34.853683 30.278761-61.641056 30.278761-26.847569 0-46.892952-9.691611-61.701252-29.13503-10.835342-13.724766-16.553994-35.997413-16.553994-66.276174l0-98.7822c0-30.278761 5.176886-51.949444 16.012227-66.276174 14.868497-19.443419 34.853683-29.13503 61.159485-29.13503 25.764035 0 45.689025 9.691611 60.497325 29.13503 10.353771 14.266533 15.47046 35.937217 15.47046 66.276174l0 58.872024zM627.938158 710.37705l0 120.51308c0 25.703839-7.464347 38.224678-22.272647 38.224678-8.608077 0-17.155958-3.972959-25.764035-12.520839l0-171.860561c8.608077-8.608077 17.155958-12.581036 25.764035-12.581036 14.808301 0 22.272647 13.122803 22.272647 38.224678z" fill="#ffffff" p-id="5337"></path></svg>